<mxfile host="app.diagrams.net" agent="Mozilla/5.0 (Windows NT 10.0; Win64; x64) AppleWebKit/537.36 (KHTML, like Gecko) Chrome/127.0.0.0 Safari/537.36" version="24.7.7">
  <diagram name="第 1 页" id="BCfExZLlMQb4x_QCQIvW">
    <mxGraphModel dx="1221" dy="725" grid="1" gridSize="10" guides="1" tooltips="1" connect="1" arrows="1" fold="1" page="1" pageScale="1" pageWidth="827" pageHeight="1169" math="0" shadow="0">
      <root>
        <mxCell id="0" />
        <mxCell id="1" parent="0" />
        <mxCell id="mmarRG9s-5jBW7Mli92Z-1" value="模型标绘模块" style="rounded=1;whiteSpace=wrap;html=1;" vertex="1" parent="1">
          <mxGeometry x="354" y="120" width="120" height="60" as="geometry" />
        </mxCell>
        <mxCell id="mmarRG9s-5jBW7Mli92Z-2" style="edgeStyle=orthogonalEdgeStyle;rounded=0;orthogonalLoop=1;jettySize=auto;html=1;exitX=0.5;exitY=1;exitDx=0;exitDy=0;" edge="1" parent="1" source="mmarRG9s-5jBW7Mli92Z-6" target="mmarRG9s-5jBW7Mli92Z-8">
          <mxGeometry relative="1" as="geometry" />
        </mxCell>
        <mxCell id="mmarRG9s-5jBW7Mli92Z-3" value="" style="edgeStyle=orthogonalEdgeStyle;rounded=0;orthogonalLoop=1;jettySize=auto;html=1;endArrow=none;endFill=0;" edge="1" parent="1" source="mmarRG9s-5jBW7Mli92Z-6" target="mmarRG9s-5jBW7Mli92Z-1">
          <mxGeometry relative="1" as="geometry" />
        </mxCell>
        <mxCell id="mmarRG9s-5jBW7Mli92Z-4" style="edgeStyle=orthogonalEdgeStyle;rounded=0;orthogonalLoop=1;jettySize=auto;html=1;exitX=0.5;exitY=1;exitDx=0;exitDy=0;" edge="1" parent="1" source="mmarRG9s-5jBW7Mli92Z-6" target="mmarRG9s-5jBW7Mli92Z-10">
          <mxGeometry relative="1" as="geometry" />
        </mxCell>
        <mxCell id="mmarRG9s-5jBW7Mli92Z-5" style="edgeStyle=orthogonalEdgeStyle;rounded=0;orthogonalLoop=1;jettySize=auto;html=1;exitX=0.5;exitY=1;exitDx=0;exitDy=0;" edge="1" parent="1" source="mmarRG9s-5jBW7Mli92Z-6" target="mmarRG9s-5jBW7Mli92Z-12">
          <mxGeometry relative="1" as="geometry" />
        </mxCell>
        <mxCell id="mmarRG9s-5jBW7Mli92Z-6" value="图标和三维模型管理" style="rounded=1;whiteSpace=wrap;html=1;" vertex="1" parent="1">
          <mxGeometry x="354" y="210" width="120" height="60" as="geometry" />
        </mxCell>
        <mxCell id="mmarRG9s-5jBW7Mli92Z-7" style="edgeStyle=orthogonalEdgeStyle;rounded=0;orthogonalLoop=1;jettySize=auto;html=1;exitX=0.5;exitY=1;exitDx=0;exitDy=0;entryX=0.5;entryY=0;entryDx=0;entryDy=0;" edge="1" parent="1" source="mmarRG9s-5jBW7Mli92Z-8" target="mmarRG9s-5jBW7Mli92Z-14">
          <mxGeometry relative="1" as="geometry" />
        </mxCell>
        <mxCell id="mmarRG9s-5jBW7Mli92Z-8" value="图标库构建管理" style="rounded=1;whiteSpace=wrap;html=1;" vertex="1" parent="1">
          <mxGeometry x="200" y="310" width="120" height="60" as="geometry" />
        </mxCell>
        <mxCell id="mmarRG9s-5jBW7Mli92Z-9" style="edgeStyle=orthogonalEdgeStyle;rounded=0;orthogonalLoop=1;jettySize=auto;html=1;exitX=0.5;exitY=1;exitDx=0;exitDy=0;" edge="1" parent="1" source="mmarRG9s-5jBW7Mli92Z-10" target="mmarRG9s-5jBW7Mli92Z-14">
          <mxGeometry relative="1" as="geometry" />
        </mxCell>
        <mxCell id="mmarRG9s-5jBW7Mli92Z-10" value="三维模型库构建管理" style="rounded=1;whiteSpace=wrap;html=1;" vertex="1" parent="1">
          <mxGeometry x="354" y="310" width="120" height="60" as="geometry" />
        </mxCell>
        <mxCell id="mmarRG9s-5jBW7Mli92Z-11" style="edgeStyle=orthogonalEdgeStyle;rounded=0;orthogonalLoop=1;jettySize=auto;html=1;exitX=0.5;exitY=1;exitDx=0;exitDy=0;entryX=0.5;entryY=0;entryDx=0;entryDy=0;" edge="1" parent="1" source="mmarRG9s-5jBW7Mli92Z-12" target="mmarRG9s-5jBW7Mli92Z-14">
          <mxGeometry relative="1" as="geometry" />
        </mxCell>
        <mxCell id="mmarRG9s-5jBW7Mli92Z-12" value="图标模型信息编辑" style="rounded=1;whiteSpace=wrap;html=1;" vertex="1" parent="1">
          <mxGeometry x="500" y="310" width="120" height="60" as="geometry" />
        </mxCell>
        <mxCell id="mmarRG9s-5jBW7Mli92Z-13" style="edgeStyle=orthogonalEdgeStyle;rounded=0;orthogonalLoop=1;jettySize=auto;html=1;exitX=0.5;exitY=1;exitDx=0;exitDy=0;" edge="1" parent="1" source="mmarRG9s-5jBW7Mli92Z-14" target="mmarRG9s-5jBW7Mli92Z-16">
          <mxGeometry relative="1" as="geometry" />
        </mxCell>
        <mxCell id="mmarRG9s-5jBW7Mli92Z-14" value="图标和模型标绘" style="rounded=1;whiteSpace=wrap;html=1;" vertex="1" parent="1">
          <mxGeometry x="354" y="410" width="120" height="60" as="geometry" />
        </mxCell>
        <mxCell id="mmarRG9s-5jBW7Mli92Z-15" style="edgeStyle=orthogonalEdgeStyle;rounded=0;orthogonalLoop=1;jettySize=auto;html=1;exitX=0.5;exitY=1;exitDx=0;exitDy=0;entryX=0.5;entryY=0;entryDx=0;entryDy=0;" edge="1" parent="1" source="mmarRG9s-5jBW7Mli92Z-16" target="mmarRG9s-5jBW7Mli92Z-18">
          <mxGeometry relative="1" as="geometry" />
        </mxCell>
        <mxCell id="mmarRG9s-5jBW7Mli92Z-16" value="选择标绘场景" style="rounded=1;whiteSpace=wrap;html=1;" vertex="1" parent="1">
          <mxGeometry x="354" y="510" width="120" height="60" as="geometry" />
        </mxCell>
        <mxCell id="mmarRG9s-5jBW7Mli92Z-17" style="edgeStyle=orthogonalEdgeStyle;rounded=0;orthogonalLoop=1;jettySize=auto;html=1;exitX=0.5;exitY=1;exitDx=0;exitDy=0;" edge="1" parent="1" source="mmarRG9s-5jBW7Mli92Z-18" target="mmarRG9s-5jBW7Mli92Z-21">
          <mxGeometry relative="1" as="geometry" />
        </mxCell>
        <mxCell id="mmarRG9s-5jBW7Mli92Z-18" value="图标模型放置调整" style="rounded=1;whiteSpace=wrap;html=1;" vertex="1" parent="1">
          <mxGeometry x="354" y="610" width="120" height="60" as="geometry" />
        </mxCell>
        <mxCell id="mmarRG9s-5jBW7Mli92Z-20" style="edgeStyle=orthogonalEdgeStyle;rounded=0;orthogonalLoop=1;jettySize=auto;html=1;exitX=0.5;exitY=1;exitDx=0;exitDy=0;" edge="1" parent="1" source="mmarRG9s-5jBW7Mli92Z-21" target="mmarRG9s-5jBW7Mli92Z-25">
          <mxGeometry relative="1" as="geometry" />
        </mxCell>
        <mxCell id="mmarRG9s-5jBW7Mli92Z-21" value="图标模型属性编辑" style="rounded=1;whiteSpace=wrap;html=1;" vertex="1" parent="1">
          <mxGeometry x="354" y="710" width="120" height="60" as="geometry" />
        </mxCell>
        <mxCell id="mmarRG9s-5jBW7Mli92Z-25" value="军标信息保存输出" style="rounded=1;whiteSpace=wrap;html=1;" vertex="1" parent="1">
          <mxGeometry x="354" y="810" width="120" height="60" as="geometry" />
        </mxCell>
        <mxCell id="mmarRG9s-5jBW7Mli92Z-27" style="edgeStyle=orthogonalEdgeStyle;rounded=0;orthogonalLoop=1;jettySize=auto;html=1;exitX=1;exitY=0.5;exitDx=0;exitDy=0;" edge="1" parent="1" source="mmarRG9s-5jBW7Mli92Z-26" target="mmarRG9s-5jBW7Mli92Z-16">
          <mxGeometry relative="1" as="geometry" />
        </mxCell>
        <mxCell id="mmarRG9s-5jBW7Mli92Z-26" value="外部图标导入" style="rounded=1;whiteSpace=wrap;html=1;" vertex="1" parent="1">
          <mxGeometry x="200" y="510" width="120" height="60" as="geometry" />
        </mxCell>
        <mxCell id="mmarRG9s-5jBW7Mli92Z-29" style="edgeStyle=orthogonalEdgeStyle;rounded=0;orthogonalLoop=1;jettySize=auto;html=1;exitX=0;exitY=0.5;exitDx=0;exitDy=0;" edge="1" parent="1" source="mmarRG9s-5jBW7Mli92Z-28" target="mmarRG9s-5jBW7Mli92Z-16">
          <mxGeometry relative="1" as="geometry" />
        </mxCell>
        <mxCell id="mmarRG9s-5jBW7Mli92Z-28" value="外部三维模型导入" style="rounded=1;whiteSpace=wrap;html=1;" vertex="1" parent="1">
          <mxGeometry x="500" y="510" width="120" height="60" as="geometry" />
        </mxCell>
      </root>
    </mxGraphModel>
  </diagram>
</mxfile>
